<?xml version="1.0" encoding="UTF-8"?>
<svg version="1.1" xmlns="http://www.w3.org/2000/svg" width="568" height="174">
<path d="M0 0 C187.44 0 374.88 0 568 0 C568 57.42 568 114.84 568 174 C380.56 174 193.12 174 0 174 C0 116.58 0 59.16 0 0 Z " fill="#FCFCFC" transform="translate(0,0)"/>
<path d="M0 0 C36.3 0 72.6 0 110 0 C110 36.63 110 73.26 110 111 C105.71 111 101.42 111 97 111 C97 78.33 97 45.66 97 12 C64.99 12 32.98 12 0 12 C0 8.04 0 4.08 0 0 Z " fill="#010101" transform="translate(431,33)"/>
<path d="M0 0 C4.29 0 8.58 0 13 0 C13 32.67 13 65.34 13 99 C45.01 99 77.02 99 110 99 C110 102.96 110 106.92 110 111 C73.7 111 37.4 111 0 111 C0 74.37 0 37.74 0 0 Z " fill="#010101" transform="translate(26,33)"/>
<path d="M0 0 C0.66 0 1.32 0 2 0 C1.52060632 4.71403788 1.03165952 8.66579301 -1 13 C-1.66 13 -2.32 13 -3 13 C-3 13.66 -3 14.32 -3 15 C2.61 15 8.22 15 14 15 C14 15.33 14 15.66 14 16 C8.06 16.33 2.12 16.66 -4 17 C-4.639375 19.165625 -5.27875 21.33125 -5.9375 23.5625 C-6.29714844 24.78066406 -6.65679687 25.99882813 -7.02734375 27.25390625 C-7.96676959 30.87201619 -8.54743991 34.29853486 -9 38 C-7.02 35.525 -7.02 35.525 -5 33 C-3.515 33.495 -3.515 33.495 -2 34 C-1.67 35.65 -1.34 37.3 -1 39 C3.55015893 37.48328036 5.50057264 33.83108947 8 30 C8.495 30.99 8.495 30.99 9 32 C3.92990276 39.6487034 3.92990276 39.6487034 0.1875 41.0625 C-2 41 -2 41 -3 40 C-3.04063832 38.33382885 -3.042721 36.66611905 -3 35 C-8.0461211 39.20510092 -9.86819397 43.86659159 -12 50 C-12.66 50 -13.32 50 -14 50 C-13.28418236 42.67872592 -11.63081979 35.65044553 -9.9375 28.5 C-9.65583984 27.29601562 -9.37417969 26.09203125 -9.08398438 24.8515625 C-8.39298183 21.90016178 -7.69822701 18.94969839 -7 16 C-9.97 16 -12.94 16 -16 16 C-16.10441406 17.20140625 -16.20882813 18.4028125 -16.31640625 19.640625 C-17.0359234 26.1099567 -18.5179819 32.40472004 -19.9375 38.75 C-21.95906115 47.80029809 -23.70686813 56.81503077 -25 66 C-25.66 66 -26.32 66 -27 66 C-26.57745325 56.61021895 -24.58847308 47.61546161 -22.56152344 38.47192383 C-21.99460999 35.91317229 -21.43795795 33.35234357 -20.8828125 30.79101562 C-20.52662893 29.16132987 -20.16987915 27.53176774 -19.8125 25.90234375 C-19.64580811 25.13784409 -19.47911621 24.37334442 -19.30737305 23.5856781 C-18.11666102 18.23332204 -18.11666102 18.23332204 -17 16 C-21.95 16 -26.9 16 -32 16 C-32 15.67 -32 15.34 -32 15 C-27.05 14.67 -22.1 14.34 -17 14 C-16.34 11.03 -15.68 8.06 -15 5 C-14.34 5 -13.68 5 -13 5 C-13.45822468 8.46941546 -13.89131683 11.67395049 -15 15 C-12.03 15 -9.06 15 -6 15 C-5.7525 13.63875 -5.505 12.2775 -5.25 10.875 C-4.26552617 6.42377191 -2.88814744 3.5199297 0 0 Z " fill="#393939" transform="translate(275,60)"/>
<path d="M0 0 C2 2 2 2 2.265625 4.8984375 C2.26046875 6.04570313 2.2553125 7.19296875 2.25 8.375 C2.25515625 9.51710938 2.2603125 10.65921875 2.265625 11.8359375 C2.01510533 14.82006883 1.55829924 16.48940678 0 19 C-1.13480527 15.39006828 -1.10015767 12.0157673 -1.0625 8.25 C-1.05347656 7.07953125 -1.04445313 5.9090625 -1.03515625 4.703125 C-1.02355469 3.81109375 -1.01195313 2.9190625 -1 2 C-9.41346265 4.69919962 -12.86427697 13.48064942 -16.75 20.875 C-21.14015282 29.97100201 -24.42758509 39.76588349 -23 50 C-22.05225874 52.22060641 -22.05225874 52.22060641 -21 54 C-16.21219795 53.57754688 -13.27154793 51.34289833 -10 48 C-8.32832529 45.66713065 -6.96643955 43.22162024 -5.625 40.6875 C-5.27050781 40.04232422 -4.91601562 39.39714844 -4.55078125 38.73242188 C-3.6894041 37.16099059 -2.84308549 35.58132025 -2 34 C-6.62 34.33 -11.24 34.66 -16 35 C-16 34.34 -16 33.68 -16 33 C-7.42 32.01 1.16 31.02 10 30 C10 30.66 10 31.32 10 32 C5.545 32.495 5.545 32.495 1 33 C0.32584879 37.20716969 -0.33799542 41.41590334 -1 45.625 C-1.28617188 47.40970703 -1.28617188 47.40970703 -1.578125 49.23046875 C-1.75859375 50.38417969 -1.9390625 51.53789063 -2.125 52.7265625 C-2.29257813 53.78439941 -2.46015625 54.84223633 -2.6328125 55.93212891 C-2.99844148 58.9869785 -3.06444822 61.92662562 -3 65 C-4.485 65.495 -4.485 65.495 -6 66 C-6.20230702 60.53771041 -5.67467473 55.74655711 -4.51171875 50.41015625 C-3.84853636 47.2866178 -3.41286183 44.16527403 -3 41 C-3.52787109 41.87011719 -3.52787109 41.87011719 -4.06640625 42.7578125 C-7.34390851 47.94362548 -10.63337149 52.8090317 -16 56 C-19.22561102 56.55827883 -20.88647237 56.72736365 -23.64453125 54.92578125 C-25.69592784 52.01126102 -25.48904525 49.06202141 -25.4375 45.625 C-25.42847656 44.90965088 -25.41945312 44.19430176 -25.41015625 43.45727539 C-24.91228497 27.91089879 -17.06417819 12.99547107 -6.95703125 1.44140625 C-4.45265479 -0.4031345 -3.0442608 -0.4434357 0 0 Z " fill="#4B4B4B" transform="translate(78,59)"/>
<path d="M0 0 C2.75105422 -0.10812003 5.49785087 -0.18734945 8.25 -0.25 C9.02730469 -0.28351562 9.80460937 -0.31703125 10.60546875 -0.3515625 C14.33715773 -0.41535206 16.35933671 -0.43776992 19.50390625 1.7109375 C22.31392456 6.01033889 21.89847914 10.07034445 21 15 C17.80880605 23.26323127 13.67261207 31.21139562 6.6875 36.875 C2.87530682 38.4708018 0.1235252 38.33799387 -4 38 C-4.66 37.34 -5.32 36.68 -6 36 C-6.84937877 39.16258051 -7.67648869 42.33059431 -8.5 45.5 C-8.73847656 46.386875 -8.97695312 47.27375 -9.22265625 48.1875 C-10.62854091 53.65036611 -11.15215933 58.37010466 -11 64 C-11.495 64.99 -11.495 64.99 -12 66 C-12.66 66 -13.32 66 -14 66 C-14.35197785 59.01072561 -13.03541584 52.8950539 -11.375 46.125 C-10.82646172 43.82560697 -10.27829627 41.52612497 -9.73046875 39.2265625 C-9.44606934 38.04481445 -9.16166992 36.86306641 -8.86865234 35.64550781 C-7.99132457 31.96359149 -7.14129917 28.27642025 -6.30078125 24.5859375 C-6.03023926 23.3985498 -5.75969727 22.21116211 -5.48095703 20.98779297 C-4.95884783 18.69276157 -4.43766357 16.39751951 -3.91748047 14.10205078 C-3.6804541 13.06806152 -3.44342773 12.03407227 -3.19921875 10.96875 C-2.99127686 10.05544922 -2.78333496 9.14214844 -2.5690918 8.20117188 C-2 6 -2 6 -1 4 C-9.02189277 8.91709615 -9.02189277 8.91709615 -15 16 C-15.65603075 19.00393028 -15.92494468 21.92955505 -16 25 C-18 23 -18 23 -18.375 19.75 C-17.91368054 15.1368054 -17.05705229 13.49377404 -14 10 C-5.22638295 2.93155437 -5.22638295 2.93155437 0 2 C0 1.34 0 0.68 0 0 Z M1 3 C-0.6990514 6.5432359 -1.50835352 10.243099 -2.375 14.0625 C-2.63410156 15.07505859 -2.89320313 16.08761719 -3.16015625 17.13085938 C-4.64318757 23.21599581 -5.46658434 28.73894256 -5 35 C-3.10295184 37.35893223 -3.10295184 37.35893223 0.125 37.0625 C6.30769773 35.97826908 10.45019275 30.89420886 14.25 26.25 C17.48766929 20.2371856 21.19049705 12.97291128 20 6 C18.22015595 2.8640843 17.47691793 2.15897264 14 1 C9.19070543 0.72777578 5.2341487 0.61378252 1 3 Z " fill="#484848" transform="translate(212,58)"/>
<path d="M0 0 C0.66 0 1.32 0 2 0 C1.37230869 7.03014262 -0.39630876 12.68570478 -3.46484375 19.02734375 C-5.58946182 23.98324633 -6.31681443 29.20812892 -7.1875 34.5 C-7.36474609 35.50675781 -7.54199219 36.51351562 -7.72460938 37.55078125 C-8.61088907 42.77264538 -9.21569318 47.70436045 -9 53 C-10.485 53.495 -10.485 53.495 -12 54 C-11.5140207 46.6379306 -11.02325928 39.30899482 -10 32 C-11.32 33.32 -12.64 34.64 -14 36 C-14.99 35.67 -15.98 35.34 -17 35 C-17.602537 28.97463002 -17.602537 28.97463002 -15.88671875 26.19921875 C-14.65378147 24.74400545 -13.33191067 23.36520843 -12 22 C-10.68 22.33 -9.36 22.66 -8 23 C-7.67386719 21.75863281 -7.34773438 20.51726562 -7.01171875 19.23828125 C-6.570715 17.59624601 -6.12928633 15.95432486 -5.6875 14.3125 C-5.47416016 13.49587891 -5.26082031 12.67925781 -5.04101562 11.83789062 C-3.86727765 7.51082676 -2.75665919 3.62873904 0 0 Z " fill="#262626" transform="translate(421,65)"/>
<path d="M0 0 C0.66 0 1.32 0 2 0 C1.7083084 4.47260461 0.8371324 7.55680927 -1.3125 11.5 C-4.97624903 18.41213117 -8 27.14810803 -8 35 C-7.401875 34.175 -6.80375 33.35 -6.1875 32.5 C-5.1046875 31.2625 -5.1046875 31.2625 -4 30 C-3.01 30 -2.02 30 -1 30 C-1 32.31 -1 34.62 -1 37 C-0.030625 36.21625 0.93875 35.4325 1.9375 34.625 C2.48277344 34.18414062 3.02804688 33.74328125 3.58984375 33.2890625 C5.13266437 32.0333609 5.13266437 32.0333609 6 30 C6.66 30.33 7.32 30.66 8 31 C3.52295035 37.02033298 -1.00082154 40.48541432 -7.7421875 43.7734375 C-10.13595808 44.79486778 -10.13595808 44.79486778 -11 47 C-11.66 47 -12.32 47 -13 47 C-11.67681398 38.50779599 -10.033832 30.12928302 -8.125 21.75 C-7.88136719 20.63109375 -7.63773437 19.5121875 -7.38671875 18.359375 C-4.15355439 4.15355439 -4.15355439 4.15355439 0 0 Z " fill="#424242" transform="translate(133,61)"/>
<path d="M0 0 C0.99 0 1.98 0 3 0 C3 1.32 3 2.64 3 4 C2.01 4 1.02 4 0 4 C-0.1546875 5.485 -0.1546875 5.485 -0.3125 7 C-0.79484575 10.38311951 -1.86074053 13.29828047 -3.12109375 16.4765625 C-4.47618362 20.36717609 -5.40097507 24.35930288 -6.37158203 28.35864258 C-7.92941373 34.7752849 -9.6139156 41.15451223 -11.33740234 47.52856445 C-12.44295131 51.66974088 -13.38229442 55.75072864 -14 60 C-9.36349536 58.28000634 -4.81839181 56.46200644 -0.4296875 54.17578125 C0.17987793 53.85875244 0.78944336 53.54172363 1.41748047 53.21508789 C3.18500162 52.28423109 4.94424752 51.33771287 6.703125 50.390625 C10.11005921 48.95357692 12.34830158 48.71229043 16 49 C15.50113281 49.24878906 15.00226563 49.49757812 14.48828125 49.75390625 C12.4419914 50.77865737 10.39834259 51.80831409 8.35546875 52.83984375 C6.96617369 53.53911786 5.57684995 54.23833497 4.1875 54.9375 C3.50107422 55.28490234 2.81464844 55.63230469 2.10742188 55.99023438 C-10.05378544 62.09960153 -10.05378544 62.09960153 -13.375 61.75 C-15 61 -15 61 -16 60 C-15.51109938 53.08554844 -14.09001529 46.57834806 -12.375 39.875 C-12.11428711 38.8447168 -11.85357422 37.81443359 -11.58496094 36.75292969 C-9.64126053 29.2007242 -7.510783 21.71309189 -5.25 14.25 C-4.95657715 13.28046387 -4.6631543 12.31092773 -4.36083984 11.31201172 C-3.14008006 7.36340744 -1.93521791 3.66376207 0 0 Z " fill="#494949" transform="translate(322,58)"/>
<path d="M0 0 C-0.99 0.66 -1.98 1.32 -3 2 C-5.60651217 4.37652581 -6.87037741 5.61113222 -8 9 C-7.34 9 -6.68 9 -6 9 C-5.731875 8.38125 -5.46375 7.7625 -5.1875 7.125 C-4 5 -4 5 -1 3 C-1.65808195 13.09815406 -3.35669017 23.02645293 -5 33 C-4.01 30.03 -3.02 27.06 -2 24 C-0.19249278 31.23002888 -3.39699631 38.65185065 -7 45 C-7.66 45 -8.32 45 -9 45 C-8.5677737 36.56413496 -7.50911809 28.40004516 -6.01635742 20.09423828 C-5.40406565 16.65042799 -5 13.5112409 -5 10 C-6.65 10.33 -8.3 10.66 -10 11 C-9.70980098 7.22741269 -9.48342371 4.67334017 -7.25 1.5625 C-4.59267675 -0.28286337 -3.1685371 -0.35205968 0 0 Z " fill="#525252" transform="translate(361,88)"/>
<path d="M0 0 C0.66 0 1.32 0 2 0 C2.66596937 4.99477026 1.90025372 7.45950856 -0.78515625 11.71875 C-4.88772301 19.0098433 -6.2452191 26.56416669 -7.8125 34.6875 C-8.11235538 36.15982724 -8.41377997 37.6318358 -8.71679688 39.10351562 C-10.0594239 45.7189967 -11.21736178 52.29532185 -12 59 C-12.66 59 -13.32 59 -14 59 C-14.22352207 53.29445593 -13.40321404 48.22540642 -12.171875 42.6640625 C-11.98159729 41.78527435 -11.79131958 40.90648621 -11.59527588 40.00106812 C-11.19203646 38.14964589 -10.78504502 36.29903731 -10.37451172 34.44921875 C-9.75402477 31.64320114 -9.15171458 28.83369902 -8.55078125 26.0234375 C-8.1547442 24.21590483 -7.75764301 22.40860492 -7.359375 20.6015625 C-7.09504669 19.3589415 -7.09504669 19.3589415 -6.82537842 18.09121704 C-5.36894696 11.63365338 -2.95282943 5.90565887 0 0 Z " fill="#505050" transform="translate(104,60)"/>
<path d="M0 0 C0 0.33 0 0.66 0 1 C-9.57 1.33 -19.14 1.66 -29 2 C-30.12707381 7.20918626 -31.25000628 12.41894322 -32.36303711 17.63110352 C-32.74190004 19.39950621 -33.12303466 21.16742396 -33.5065918 22.93481445 C-36.55191339 36.84704877 -36.55191339 36.84704877 -38 51 C-38.66 51 -39.32 51 -40 51 C-40.17234676 44.67695454 -39.65103585 39.07642908 -38.28515625 32.9140625 C-38.10995956 32.09046234 -37.93476288 31.26686218 -37.7542572 30.41830444 C-37.19887418 27.81861626 -36.63071012 25.22191101 -36.0625 22.625 C-35.68474535 20.86084852 -35.30778516 19.09652673 -34.93164062 17.33203125 C-32.20064964 4.60194893 -32.20064964 4.60194893 -31 1 C-35.95 1 -40.9 1 -46 1 C-46 0.67 -46 0.34 -46 0 C-30.67805568 -1.59093671 -15.35189995 -0.66115116 0 0 Z " fill="#333333" transform="translate(478,75)"/>
<path d="M0 0 C0.66 0 1.32 0 2 0 C1.70695522 4.49335335 0.83817016 7.52658237 -1.35546875 11.46875 C-4.35257392 17.32343529 -5.76361565 23.22054165 -7.125 29.625 C-7.37652832 30.7598584 -7.62805664 31.8947168 -7.88720703 33.06396484 C-9.7753816 41.67516668 -11.50386811 50.31193585 -13 59 C-13.33 59 -13.66 59 -14 59 C-14.53766782 50.10159757 -12.78127863 42.0823709 -10.80175781 33.46899414 C-10.25262932 31.07396781 -9.72278 28.67526953 -9.1953125 26.27539062 C-4.28495726 4.28495726 -4.28495726 4.28495726 0 0 Z " fill="#4C4C4C" transform="translate(174,60)"/>
<path d="M0 0 C0.598125 0.20625 1.19625 0.4125 1.8125 0.625 C0.1625 0.955 -1.4875 1.285 -3.1875 1.625 C-3.4829439 6.64754631 -3.17264628 9.52042386 -0.1875 13.625 C3.25678265 12.17718207 5.17380962 10.34805391 7.5625 7.5 C8.17609375 6.77554688 8.7896875 6.05109375 9.421875 5.3046875 C9.88078125 4.75039062 10.3396875 4.19609375 10.8125 3.625 C10.8125 7.55418699 9.51657462 8.35886653 6.9375 11.25 C3.48154757 15.40443139 1.97430714 18.41972948 1.16015625 23.70703125 C0.68428072 26.33236704 -0.19311664 27.8607378 -2.1875 29.625 C-3.5075 29.625 -4.8275 29.625 -6.1875 29.625 C-5.56183155 24.11911765 -5.56183155 24.11911765 -3.625 21.5625 C-2.02852187 19.70506237 -2.02852187 19.70506237 -1.75 17.3125 C-2.19049825 14.60658219 -2.81401978 13.45116327 -4.25 11.1875 C-5.94124859 8.44072037 -6.18923738 7.71708108 -6.125 4.3125 C-4.96363768 0.98326135 -3.70721147 -0.63552197 0 0 Z " fill="#3F3F3F" transform="translate(499.1875,86.375)"/>
<path d="M0 0 C-0.165 1.11375 -0.33 2.2275 -0.5 3.375 C-1.0455458 6.72032033 -1.0455458 6.72032033 -1 9 C0.65 8.34 2.3 7.68 4 7 C3.855625 8.134375 3.71125 9.26875 3.5625 10.4375 C2.99698633 14.95353056 2.49225191 19.47547181 2 24 C3.12837409 22.41906946 4.25256518 20.83515284 5.375 19.25 C6.00148438 18.36828125 6.62796875 17.4865625 7.2734375 16.578125 C8.71480941 14.42585021 9.91498093 12.34539477 11 10 C11.66 10.33 12.32 10.66 13 11 C12.09238938 12.75471386 11.17349289 14.50359264 10.25 16.25 C9.73953125 17.22453125 9.2290625 18.1990625 8.703125 19.203125 C7.01726347 21.9716499 5.52777826 23.97391819 3 26 C1.68 26 0.36 26 -1 26 C-0.88487847 24.27014758 -0.75744323 22.54111249 -0.625 20.8125 C-0.55539062 19.84957031 -0.48578125 18.88664062 -0.4140625 17.89453125 C0.00215853 14.98491062 0.79874096 12.67109226 2 10 C0.2984375 10.2784375 0.2984375 10.2784375 -1.4375 10.5625 C-3.2009375 10.7790625 -3.2009375 10.7790625 -5 11 C-5.33 10.67 -5.66 10.34 -6 10 C-5.53488372 3.72093023 -5.53488372 3.72093023 -3.5625 1.0625 C-2 0 -2 0 0 0 Z " fill="#4C4C4C" transform="translate(477,81)"/>
<path d="M0 0 C2.75105422 -0.10812003 5.49785087 -0.18734945 8.25 -0.25 C9.02730469 -0.28351562 9.80460937 -0.31703125 10.60546875 -0.3515625 C14.35177855 -0.41560198 16.36756447 -0.42943154 19.53125 1.71875 C21.22312696 4.3465589 21.43170581 5.6610013 21.25 8.75 C21.21390625 9.54921875 21.1778125 10.3484375 21.140625 11.171875 C21.09421875 11.77515625 21.0478125 12.3784375 21 13 C20.67 13 20.34 13 20 13 C19.85304688 12.06027344 19.85304688 12.06027344 19.703125 11.1015625 C19.55359375 10.28429687 19.4040625 9.46703125 19.25 8.625 C19.11078125 7.81289062 18.9715625 7.00078125 18.828125 6.1640625 C18.18395889 3.86671384 18.18395889 3.86671384 16.13671875 2.72265625 C11.76887091 1.24541338 6.31818737 1.39610183 2 3 C0.62533375 5.47636012 0.62533375 5.47636012 0 8 C-0.33 6.68 -0.66 5.36 -1 4 C-9.02189277 8.91709615 -9.02189277 8.91709615 -15 16 C-15.65603075 19.00393028 -15.92494468 21.92955505 -16 25 C-18 23 -18 23 -18.375 19.75 C-17.91368054 15.1368054 -17.05705229 13.49377404 -14 10 C-5.22638295 2.93155437 -5.22638295 2.93155437 0 2 C0 1.34 0 0.68 0 0 Z " fill="#3C3C3C" transform="translate(212,58)"/>
<path d="M0 0 C0.34274406 1.66475686 0.67364302 3.33195323 1 5 C1.3403125 6.299375 1.3403125 6.299375 1.6875 7.625 C2.0707099 11.76366695 1.30500575 15.24612947 0.48046875 19.296875 C-0.10990719 22.61833964 -0.14939216 25.63867635 0 29 C-0.99 29.33 -1.98 29.66 -3 30 C-2.5140207 22.6379306 -2.02325928 15.30899482 -1 8 C-2.65 8.66 -4.3 9.32 -6 10 C-6.22692276 6.67179946 -6.32162419 4.58198664 -4.6875 1.625 C-3 0 -3 0 0 0 Z " fill="#5C5C5C" transform="translate(412,89)"/>
<path d="M0 0 C0 1.98 0 3.96 0 6 C0.928125 5.505 1.85625 5.01 2.8125 4.5 C6 3 6 3 9 3 C4.32735866 7.00512115 0.11862273 9.15019129 -6 10 C-7 9 -7 9 -7.3125 5.625 C-7 2 -7 2 -5.1875 0 C-3 -1 -3 -1 0 0 Z " fill="#2E2E2E" transform="translate(460,89)"/>
<path d="M0 0 C0 1.98 0 3.96 0 6 C2.64 4.68 5.28 3.36 8 2 C7.34 3.32 6.68 4.64 6 6 C2.375 6.75 2.375 6.75 -1 7 C-1.33 7.99 -1.66 8.98 -2 10 C-3.65 9.67 -5.3 9.34 -7 9 C-7.25 5.6875 -7.25 5.6875 -7 2 C-4.37226805 -0.89956629 -3.79438356 -1.26479452 0 0 Z " fill="#5C5C5C" transform="translate(112,89)"/>
<path d="M0 0 C1.65 0.33 3.3 0.66 5 1 C4.401875 1.061875 3.80375 1.12375 3.1875 1.1875 C0.12856542 2.3236757 -0.55041099 4.17330142 -2 7 C-1.67 7.33 -1.34 7.66 -1 8 C-0.54625 7.34 -0.0925 6.68 0.375 6 C0.91125 5.34 1.4475 4.68 2 4 C2.66 4 3.32 4 4 4 C4.33 6.64 4.66 9.28 5 12 C9.03384128 9.92856799 10.92856799 8.03384128 13 4 C13.33 4.99 13.66 5.98 14 7 C12.78515625 8.82421875 12.78515625 8.82421875 11.0625 10.6875 C10.49660156 11.31011719 9.93070312 11.93273437 9.34765625 12.57421875 C8.90292969 13.04472656 8.45820313 13.51523438 8 14 C6.078125 13.66015625 6.078125 13.66015625 4 13 C2.75 10.4375 2.75 10.4375 2 8 C1.071875 8.99 1.071875 8.99 0.125 10 C-2 12 -2 12 -4 12 C-4.33292585 7.75519536 -4.43885872 5.64457375 -2 2.0625 C-1.34 1.381875 -0.68 0.70125 0 0 Z " fill="#393939" transform="translate(426,87)"/>
<path d="M0 0 C-0.598125 0.061875 -1.19625 0.12375 -1.8125 0.1875 C-4.87143458 1.3236757 -5.55041099 3.17330142 -7 6 C-6.67 6.33 -6.34 6.66 -6 7 C-5.54625 6.34 -5.0925 5.68 -4.625 5 C-4.08875 4.34 -3.5525 3.68 -3 3 C-2.34 3 -1.68 3 -1 3 C-0.67 5.64 -0.34 8.28 0 11 C4.20626034 9.49776416 5.73900021 6.71449966 8 3 C8.33 3.66 8.66 4.32 9 5 C5.25 10.75 5.25 10.75 3 13 C-0.53571429 12.46428571 -0.53571429 12.46428571 -2 11 C-2.04063832 9.33382885 -2.042721 7.66611905 -2 6 C-2.66 6 -3.32 6 -4 6 C-4.268125 6.639375 -4.53625 7.27875 -4.8125 7.9375 C-6 10 -6 10 -9 11 C-9.29554656 3.31578947 -9.29554656 3.31578947 -7 0 C-4.3333581 -1.33332095 -2.83319697 -0.67102033 0 0 Z " fill="#3B3B3B" transform="translate(242,88)"/>
<path d="M0 0 C-0.598125 0.061875 -1.19625 0.12375 -1.8125 0.1875 C-4.87143458 1.3236757 -5.55041099 3.17330142 -7 6 C-6.67 6.33 -6.34 6.66 -6 7 C-5.54625 6.34 -5.0925 5.68 -4.625 5 C-4.08875 4.34 -3.5525 3.68 -3 3 C-2.34 3 -1.68 3 -1 3 C-0.67 5.64 -0.34 8.28 0 11 C4.20626034 9.49776416 5.73900021 6.71449966 8 3 C8.33 3.66 8.66 4.32 9 5 C5.25 10.75 5.25 10.75 3 13 C-0.53571429 12.46428571 -0.53571429 12.46428571 -2 11 C-2.04063832 9.33382885 -2.042721 7.66611905 -2 6 C-2.66 6 -3.32 6 -4 6 C-4.268125 6.639375 -4.53625 7.27875 -4.8125 7.9375 C-6 10 -6 10 -9 11 C-9.29554656 3.31578947 -9.29554656 3.31578947 -7 0 C-4.3333581 -1.33332095 -2.83319697 -0.67102033 0 0 Z " fill="#3B3B3B" transform="translate(152,88)"/>
<path d="M0 0 C0.66 0 1.32 0 2 0 C1.67 1.98 1.34 3.96 1 6 C2.175625 4.7625 2.175625 4.7625 3.375 3.5 C6 1 6 1 8 1 C7.67 3.64 7.34 6.28 7 9 C10.67099501 6.3211658 12.72620052 3.89794196 15 0 C15.66 0 16.32 0 17 0 C15.52670958 5.00918744 12.72484762 7.51807722 9 11 C8.01 10.67 7.02 10.34 6 10 C5.3125 7.9375 5.3125 7.9375 5 6 C3.02 6.99 3.02 6.99 1 8 C0 7 0 7 -0.0625 3.4375 C-0.041875 2.303125 -0.02125 1.16875 0 0 Z " fill="#3E3E3E" transform="translate(370,91)"/>
<path d="M0 0 C0 0.66 0 1.32 0 2 C-4.455 2.495 -4.455 2.495 -9 3 C-9.33 4.65 -9.66 6.3 -10 8 C-10.66 8 -11.32 8 -12 8 C-12 6.68 -12 5.36 -12 4 C-16.62 4.33 -21.24 4.66 -26 5 C-26 4.34 -26 3.68 -26 3 C-22.04191662 2.49800786 -18.08349396 1.99874328 -14.125 1.5 C-12.99707031 1.35691406 -11.86914062 1.21382813 -10.70703125 1.06640625 C-9.63066406 0.93105469 -8.55429688 0.79570313 -7.4453125 0.65625 C-6.45031738 0.53056641 -5.45532227 0.40488281 -4.43017578 0.27539062 C-2 0 -2 0 0 0 Z " fill="#3C3C3C" transform="translate(88,89)"/>
<path d="M0 0 C0.66 0.33 1.32 0.66 2 1 C0.90344712 2.31886772 -0.20253423 3.62990057 -1.3125 4.9375 C-1.92738281 5.66839844 -2.54226562 6.39929688 -3.17578125 7.15234375 C-5 9 -5 9 -8 10 C-8.66 9.34 -9.32 8.68 -10 8 C-11.32 9.32 -12.64 10.64 -14 12 C-14.66 11.67 -15.32 11.34 -16 11 C-15.05016642 9.49460339 -14.08988109 7.99579653 -13.125 6.5 C-12.32449219 5.24703125 -12.32449219 5.24703125 -11.5078125 3.96875 C-10.76144531 2.99421875 -10.76144531 2.99421875 -10 2 C-9.34 2 -8.68 2 -8 2 C-7.67 3.65 -7.34 5.3 -7 7 C-6.030625 6.21625 -5.06125 5.4325 -4.0625 4.625 C-3.51722656 4.18414062 -2.97195312 3.74328125 -2.41015625 3.2890625 C-0.86733563 2.0333609 -0.86733563 2.0333609 0 0 Z " fill="#4C4C4C" transform="translate(139,91)"/>
<path d="M0 0 C0.66 0.33 1.32 0.66 2 1 C-0.94818897 11.70658099 -5.42521321 20.02183363 -15 26 C-15.99 25.34 -16.98 24.68 -18 24 C-17.154375 23.67 -16.30875 23.34 -15.4375 23 C-6.34793292 17.71152461 -3.19990186 9.67343604 0 0 Z " fill="#4D4D4D" transform="translate(231,70)"/>
<path d="M0 0 C0.66 0 1.32 0 2 0 C1.44854729 5.23880078 0.57077907 9.97350697 -1 15 C-2.32 14.67 -3.64 14.34 -5 14 C-3.1643002 4.0872211 -3.1643002 4.0872211 0 0 Z " fill="#484848" transform="translate(421,65)"/>
<path d="M0 0 C0.66 0 1.32 0 2 0 C1.46148032 5.27749285 0.22656164 9.25645564 -2 14 C-2.33 13.34 -2.66 12.68 -3 12 C-3.66 12 -4.32 12 -5 12 C-4.52583422 7.02125936 -3.0900669 3.93281242 0 0 Z " fill="#4E4E4E" transform="translate(133,61)"/>
<path d="M0 0 C0.99 0 1.98 0 3 0 C3 1.32 3 2.64 3 4 C2.01 4 1.02 4 0 4 C-0.0825 4.928125 -0.165 5.85625 -0.25 6.8125 C-0.98242925 12.12534498 -3.06686151 17.02778798 -5 22 C-5.33 22 -5.66 22 -6 22 C-5.59200675 13.97613274 -3.08963187 7.37635358 0 0 Z " fill="#515151" transform="translate(322,58)"/>
<path d="M0 0 C0.66 0 1.32 0 2 0 C1.52060632 4.71403788 1.03165952 8.66579301 -1 13 C-2.32 12.34 -3.64 11.68 -5 11 C-4.46968862 6.4923533 -2.74778884 3.58045212 0 0 Z " fill="#737373" transform="translate(275,60)"/>
<path d="M0 0 C0.66 0 1.32 0 2 0 C1.67 1.32 1.34 2.64 1 4 C2.98 2.68 4.96 1.36 7 0 C7.33 0.99 7.66 1.98 8 3 C7.2575 3.4125 6.515 3.825 5.75 4.25 C2.94915692 5.89266462 2.94915692 5.89266462 0.8125 8.1875 C-0.0846875 9.0846875 -0.0846875 9.0846875 -1 10 C-1.66 10 -2.32 10 -3 10 C-2.25 2.25 -2.25 2.25 0 0 Z " fill="#2E2E2E" transform="translate(123,98)"/>
<path d="M0 0 C0.66 0 1.32 0 2 0 C2.28571429 7.42857143 2.28571429 7.42857143 0 11 C-1.32 11 -2.64 11 -4 11 C-3.49357808 6.64477147 -2.61588503 3.55760365 0 0 Z " fill="#555555" transform="translate(104,60)"/>
<path d="M0 0 C1.41534496 4.46282734 0.10036363 7.87998893 -1.3125 12.1875 C-1.53873047 12.92419922 -1.76496094 13.66089844 -1.99804688 14.41992188 C-2.5989974 16.30243835 -3.29313368 18.15464101 -4 20 C-4.66 20.33 -5.32 20.66 -6 21 C-5.52162972 14.7811864 -4.56630899 4.56630899 0 0 Z " fill="#525252" transform="translate(366,91)"/>
<path d="M0 0 C0.66 0 1.32 0 2 0 C1.67 2.97 1.34 5.94 1 9 C4.7465041 7.90011894 4.7465041 7.90011894 7.125 5 C7.41375 4.34 7.7025 3.68 8 3 C8.99 2.34 9.98 1.68 11 1 C9.66028846 5.3845105 7.94244409 7.6161966 4 10 C1.1875 9.75 1.1875 9.75 -1 9 C-0.67 6.03 -0.34 3.06 0 0 Z " fill="#474747" transform="translate(338,90)"/>
<path d="M0 0 C0 0.66 0 1.32 0 2 C-0.9590625 2.2784375 -0.9590625 2.2784375 -1.9375 2.5625 C-4.42126213 3.94246056 -4.42126213 3.94246056 -4.75 7.625 C-4.8325 8.73875 -4.915 9.8525 -5 11 C-4.01 10.34 -3.02 9.68 -2 9 C-2.66 10.32 -3.32 11.64 -4 13 C-5.32 13 -6.64 13 -8 13 C-8.43127405 8.68725946 -8.39417226 5.95799604 -5.6875 2.5625 C-3 0 -3 0 0 0 Z " fill="#484848" transform="translate(412,87)"/>
<path d="M0 0 C-0.875 6.75 -0.875 6.75 -2 9 C-4.0625 9.625 -4.0625 9.625 -6 10 C-5.38909774 3.52443609 -5.38909774 3.52443609 -3.5625 1.0625 C-2 0 -2 0 0 0 Z " fill="#5D5D5D" transform="translate(477,81)"/>
<path d="M0 0 C0.99 0.33 1.98 0.66 3 1 C2.01 3.97 1.02 6.94 0 10 C-0.99 9.67 -1.98 9.34 -3 9 C-2.25 2.25 -2.25 2.25 0 0 Z " fill="#8D8D8D" transform="translate(457,88)"/>
<path d="M0 0 C1.1875 1.6875 1.1875 1.6875 2 4 C0.875 6.75 0.875 6.75 -1 9 C-2.32 9 -3.64 9 -5 9 C-4.67 7.02 -4.34 5.04 -4 3 C-3.34 3 -2.68 3 -2 3 C-1.34 2.01 -0.68 1.02 0 0 Z " fill="#808080" transform="translate(498,107)"/>
<path d="M0 0 C-0.41421969 4.83256305 -2.46413986 6.82679218 -6 10 C-6.22692276 6.67179946 -6.32162419 4.58198664 -4.6875 1.625 C-3 0 -3 0 0 0 Z " fill="#E9E9E9" transform="translate(412,89)"/>
<path d="M0 0 C0.66 0 1.32 0 2 0 C1.67 2.31 1.34 4.62 1 7 C0.34 7 -0.32 7 -1 7 C-1.66 8.32 -2.32 9.64 -3 11 C-3.6875 9.375 -3.6875 9.375 -4 7 C-1.72413793 1.72413793 -1.72413793 1.72413793 0 0 Z " fill="#595959" transform="translate(174,60)"/>
<path d="M0 0 C1.1446875 0.12375 1.1446875 0.12375 2.3125 0.25 C2.3125 0.91 2.3125 1.57 2.3125 2.25 C0.65401823 3.26351664 -1.01415961 4.26120795 -2.6875 5.25 C-4.05734198 6.54579647 -5.4026049 7.86992749 -6.6875 9.25 C-6.04078163 4.59362773 -5.23074478 0.48658091 0 0 Z " fill="#DFDFDF" transform="translate(429.6875,87.75)"/>
<path d="M0 0 C0.99 0 1.98 0 3 0 C1.9318153 5.11365014 0.76892524 10.07227969 -1 15 C-1.33 15 -1.66 15 -2 15 C-1.47462276 9.9697924 -0.89405214 4.98114761 0 0 Z " fill="#383838" transform="translate(127,73)"/>
<path d="M0 0 C0.33 0.66 0.66 1.32 1 2 C-0.52994792 3.23697917 -2.05989583 4.47395833 -3.58984375 5.7109375 C-5.13266437 6.9666391 -5.13266437 6.9666391 -6 9 C-6.66 9 -7.32 9 -8 9 C-7.6655974 5.90677596 -7.4404882 4.41112232 -5.125 2.25 C-3 1 -3 1 0 0 Z " fill="#D3D3D3" transform="translate(361,88)"/>
<path d="M0 0 C1.32 0.66 2.64 1.32 4 2 C1.42215154 4.64752004 -0.91648098 6.94432065 -4 9 C-3.38461538 3.46153846 -3.38461538 3.46153846 -1.4375 1.125 C-0.963125 0.75375 -0.48875 0.3825 0 0 Z " fill="#DDDDDD" transform="translate(238,88)"/>
<path d="M0 0 C1.32 0.66 2.64 1.32 4 2 C1.42215154 4.64752004 -0.91648098 6.94432065 -4 9 C-3.38461538 3.46153846 -3.38461538 3.46153846 -1.4375 1.125 C-0.963125 0.75375 -0.48875 0.3825 0 0 Z " fill="#DDDDDD" transform="translate(148,88)"/>
<path d="M0 0 C0.99 0.66 1.98 1.32 3 2 C2.55005243 3.79379098 2.08975857 5.58498928 1.625 7.375 C1.36976563 8.37273437 1.11453125 9.37046875 0.8515625 10.3984375 C0 13 0 13 -2 15 C-1.34 10.05 -0.68 5.1 0 0 Z " fill="#D6D6D6" transform="translate(357,108)"/>
<path d="M0 0 C1 4 1 4 0.00390625 5.703125 C-1.33072917 7.13541667 -2.66536458 8.56770833 -4 10 C-4.66 9.67 -5.32 9.34 -6 9 C-4.02 6.03 -2.04 3.06 0 0 Z " fill="#DADADA" transform="translate(129,93)"/>
<path d="M0 0 C0.66 0 1.32 0 2 0 C2.125 3.375 2.125 3.375 2 7 C1.34 7.66 0.68 8.32 0 9 C-0.33 8.01 -0.66 7.02 -1 6 C-1.99 6.99 -2.98 7.98 -4 9 C-2.80100302 5.9168649 -1.52299523 2.93720508 0 0 Z " fill="#373737" transform="translate(499,102)"/>
<path d="M0 0 C0.99 0 1.98 0 3 0 C2.01 3.3 1.02 6.6 0 10 C-0.66 10 -1.32 10 -2 10 C-1.125 2.25 -1.125 2.25 0 0 Z " fill="#343434" transform="translate(263,100)"/>
<path d="M0 0 C0.33 0.66 0.66 1.32 1 2 C1.66 2 2.32 2 3 2 C2.67 3.98 2.34 5.96 2 8 C1.34 7.01 0.68 6.02 0 5 C-0.99 6.32 -1.98 7.64 -3 9 C-3 5.30581799 -1.71820705 3.22163822 0 0 Z " fill="#4C4C4C" transform="translate(75,95)"/>
<path d="M0 0 C0.66 0 1.32 0 2 0 C1.67 1.98 1.34 3.96 1 6 C0.34 5.67 -0.32 5.34 -1 5 C-1.66 6.65 -2.32 8.3 -3 10 C-3.75 8.375 -3.75 8.375 -4 6 C-2.1875 2.75 -2.1875 2.75 0 0 Z " fill="#464646" transform="translate(275,60)"/>
<path d="M0 0 C1.32 0 2.64 0 4 0 C2.66666667 3.33333333 1.33333333 6.66666667 0 10 C-0.33 10 -0.66 10 -1 10 C-0.67 6.7 -0.34 3.4 0 0 Z " fill="#313131" transform="translate(99,71)"/>
<path d="M0 0 C0.99 0 1.98 0 3 0 C2.47731534 2.76276177 1.89130413 5.3260876 1 8 C0.34 8 -0.32 8 -1 8 C-1.04241723 5.66705225 -1.04092937 3.33297433 -1 1 C-0.67 0.67 -0.34 0.34 0 0 Z " fill="#323232" transform="translate(353,125)"/>
<path d="M0 0 C0.66 0 1.32 0 2 0 C2 1.65 2 3.3 2 5 C1.01 5.495 1.01 5.495 0 6 C0 5.01 0 4.02 0 3 C-2.31 3.33 -4.62 3.66 -7 4 C-7 3.34 -7 2.68 -7 2 C-6.030625 1.855625 -5.06125 1.71125 -4.0625 1.5625 C-1.13513227 1.32437659 -1.13513227 1.32437659 0 0 Z " fill="#303030" transform="translate(479,88)"/>
<path d="M0 0 C0.66 0.66 1.32 1.32 2 2 C1.7578125 4.3828125 1.7578125 4.3828125 1.125 7.125 C0.92132813 8.03507812 0.71765625 8.94515625 0.5078125 9.8828125 C0.34023438 10.58148438 0.17265625 11.28015625 0 12 C-0.66 11.34 -1.32 10.68 -2 10 C-1.7578125 7.6171875 -1.7578125 7.6171875 -1.125 4.875 C-0.92132813 3.96492188 -0.71765625 3.05484375 -0.5078125 2.1171875 C-0.34023438 1.41851562 -0.17265625 0.71984375 0 0 Z " fill="#717171" transform="translate(315,78)"/>
<path d="M0 0 C0.99 0.33 1.98 0.66 3 1 C0.36 2.98 -2.28 4.96 -5 7 C-5.99 6.34 -6.98 5.68 -8 5 C-7.05125 4.54625 -6.1025 4.0925 -5.125 3.625 C-1.99686321 2.19761746 -1.99686321 2.19761746 0 0 Z " fill="#545454" transform="translate(221,89)"/>
<path d="M0 0 C1.60080151 4.00200378 0.29279692 7.04556236 -1 11 C-1.66 10.34 -2.32 9.68 -3 9 C-2.67582137 5.19090105 -2.14418558 3.21627837 0 0 Z " fill="#666666" transform="translate(366,91)"/>
<path d="M0 0 C0.99 0 1.98 0 3 0 C3.125 2.875 3.125 2.875 3 6 C2.34 6.66 1.68 7.32 1 8 C1 7.34 1 6.68 1 6 C0.34 5.67 -0.32 5.34 -1 5 C-0.67 3.35 -0.34 1.7 0 0 Z " fill="#2D2D2D" transform="translate(412,88)"/>
<path d="M0 0 C0.33 0.99 0.66 1.98 1 3 C-0.875 6.1875 -0.875 6.1875 -3 9 C-3.33 9 -3.66 9 -4 9 C-3.67 6.69 -3.34 4.38 -3 2 C-2.34 2 -1.68 2 -1 2 C-0.67 1.34 -0.34 0.68 0 0 Z " fill="#242424" transform="translate(173,67)"/>
<path d="M0 0 C1.1875 1.5 1.1875 1.5 2 4 C1.27101296 6.78824238 0.1843275 9.37665092 -1 12 C-1.33 12 -1.66 12 -2 12 C-1.85831863 10.56208484 -1.71148957 9.1246763 -1.5625 7.6875 C-1.48128906 6.88699219 -1.40007812 6.08648437 -1.31640625 5.26171875 C-1 3 -1 3 0 0 Z " fill="#595959" transform="translate(318,68)"/>
<path d="M0 0 C0.33 0 0.66 0 1 0 C1.33 2.97 1.66 5.94 2 9 C1.01 9.33 0.02 9.66 -1 10 C-1.125 3.375 -1.125 3.375 0 0 Z " fill="#4A4A4A" transform="translate(410,109)"/>
<path d="M0 0 C3 1 3 1 4 3 C6.02463255 3.65213292 6.02463255 3.65213292 8 4 C7.34 4.66 6.68 5.32 6 6 C5.34 5.67 4.68 5.34 4 5 C3.67 5.99 3.34 6.98 3 8 C2.01 5.36 1.02 2.72 0 0 Z " fill="#5C5C5C" transform="translate(495,97)"/>
<path d="M0 0 C0.33 0.66 0.66 1.32 1 2 C-0.65 3.98 -2.3 5.96 -4 8 C-4.66 7.34 -5.32 6.68 -6 6 C-5.34 6 -4.68 6 -4 6 C-3.71125 5.38125 -3.4225 4.7625 -3.125 4.125 C-2 2 -2 2 0 0 Z " fill="#545454" transform="translate(348,91)"/>
</svg>
